<svg version="1.1" xmlns="http://www.w3.org/2000/svg" xmlns:xlink="http://www.w3.org/1999/xlink" x="0px" y="0px"
     viewBox="0 0 2200 1466" style="enable-background:new 0 0 2200 1466;" xml:space="preserve">
    <g id="Objects">
	<path d="M677.811,448.627c-0.034-0.001-0.069,0-0.103,0H571.928c-0.015,0-0.03,0-0.045,0h-98.837v-55.741h303.586v55.741H677.811z
		 M671.752,462.681c2.802,15.574,10.978,61.478,21.165,122.761H556.761c10.187-61.284,18.364-107.187,21.165-122.761H671.752z
		 M410.167,585.442c30.059-62.633,53.481-109.434,60.185-122.761h93.297c-3.205,17.868-11.254,63.257-21.132,122.761H410.167z
		 M776.63,353.035v25.798H473.049v-25.798c0-83.698,68.093-151.791,151.791-151.791S776.63,269.338,776.63,353.035z
		 M839.512,585.442H707.163c-9.878-59.504-17.927-104.894-21.132-122.761h93.297C786.03,476.008,809.453,522.809,839.512,585.442z
		 M881.31,613.702c0,7.18-5.841,13.021-13.021,13.021H381.39c-7.18,0-13.021-5.841-13.021-13.021v-1.185
		c0-7.18,5.841-13.021,13.021-13.021h17.582c0.01,0,0.021,0.002,0.031,0.002c0.008,0,0.016-0.002,0.025-0.002h149.438
		c0.005,0,0.01,0.001,0.016,0.001c0.01,0,0.019-0.001,0.029-0.001h152.657c0.01,0,0.019,0.001,0.029,0.001
		c0.005,0,0.01-0.001,0.016-0.001H850.65c0.008,0,0.016,0.002,0.025,0.002c0.01,0,0.021-0.002,0.031-0.002h17.583
		c7.18,0,13.021,5.841,13.021,13.021V613.702z M775.9,1122.206c-1.419-5.233-2.584-9.612-3.649-13.715
		c-3.454-119.068-32.064-318.29-56.053-467.714h149.619c61.493,130.689,139.8,306.609,168.209,411.609
		c19.246,71.161-22.991,144.719-94.153,163.972c-34.475,9.327-70.516,4.67-101.489-13.115
		C807.414,1185.459,785.223,1156.68,775.9,1122.206z M491.136,1131.057c0-6.53,0.103-13.519,0.314-21.365
		c0-0.013,0.001-0.026,0.001-0.039c0.002-0.062,0.01-0.124,0.01-0.186c0-0.02-0.003-0.039-0.003-0.059
		c3.381-118.848,32.226-319.173,56.255-468.633h154.252c24.028,149.463,52.873,349.786,56.255,468.629
		c0,0.021-0.003,0.042-0.003,0.063c0,0.046,0.009,0.091,0.009,0.136c0,0.009,0.001,0.019,0.001,0.028
		c0,0.02,0.001,0.039,0.001,0.059c0.208,7.425,0.314,14.614,0.314,21.365c0,73.722-59.977,133.698-133.698,133.698
		C551.117,1264.756,491.136,1204.779,491.136,1131.057z M215.652,1052.385c28.411-105.004,106.717-280.921,168.209-411.608h149.62
		c-23.99,149.422-52.601,348.648-56.054,467.721c-1.147,4.391-2.341,8.882-3.648,13.706c-9.324,34.477-31.514,63.256-62.485,81.04
		c-30.973,17.783-67.014,22.444-101.489,13.115C238.643,1197.105,196.406,1123.547,215.652,1052.385z"/>

</g>
</svg>
